<svg xmlns="http://www.w3.org/2000/svg" width="478" height="126"><g fill="none" fill-rule="evenodd"><path fill="#000" fill-opacity=".05" d="M58.267 11.757h409.227a4 4 0 0 1 3.666 5.6L428.282 115.6a4 4 0 0 1-3.666 2.4H13.893a4 4 0 0 1-3.646-5.647L54.622 14.11a4 4 0 0 1 3.645-2.353z"/><path fill="#424267" fill-rule="nonzero" d="M178.872 90H176a2 2 0 0 1-2-2V68a2 2 0 0 0-2-2h-4a2 2 0 0 0-2 2v20a2 2 0 0 1-2 2h-12a2 2 0 0 1-2-2V68a2 2 0 0 0-2-2h-2a2 2 0 0 0-2 2v20a2 2 0 0 1-2 2H70a2 2 0 0 0-2 2v16a2 2 0 0 1-2 2H54a2 2 0 0 1-2-2V80.242a2 2 0 0 0-3.827-.813l-14.024 31.498a2 2 0 0 1-2.64 1.014l-10.963-4.881a2 2 0 0 1-1.014-2.64l38.234-85.874a2 2 0 0 1 2.64-1.014l10.963 4.881a2 2 0 0 1 1.013 2.64l-9.854 22.134A2 2 0 0 0 64.355 50H126a2 2 0 0 0 2-2v-6a2 2 0 0 1 2-2h12a2 2 0 0 1 2 2v6a2 2 0 0 0 2 2h2a2 2 0 0 0 2-2v-6a2 2 0 0 1 2-2h12a2 2 0 0 1 2 2v6a2 2 0 0 0 2 2h20a2 2 0 0 1 2 2v10.515a2 2 0 0 0 3.827.814l19.939-44.783a2 2 0 0 1 2.64-1.014l10.963 4.881a2 2 0 0 1 1.013 2.64l-9.854 22.134A2 2 0 0 0 220.355 50H282a2 2 0 0 0 2-2v-6a2 2 0 0 1 2-2h28a2 2 0 0 1 2 2v6a2 2 0 0 0 2 2h108a2 2 0 0 1 2 2v36a2 2 0 0 1-2 2h-12a2 2 0 0 1-2-2V68a2 2 0 0 0-2-2h-2a2 2 0 0 0-2 2v20a2 2 0 0 1-2 2h-12a2 2 0 0 1-2-2V72a2 2 0 0 0-2-2h-8a2 2 0 0 1-2-2 2 2 0 0 0-2-2h-2a2 2 0 0 0-2 2v20a2 2 0 0 1-2 2h-12a2 2 0 0 1-2-2v-8a2 2 0 0 0-2-2h-2a2 2 0 0 0-2 2v8a2 2 0 0 1-2 2h-24a2 2 0 0 1-2-2V68a2 2 0 0 0-2-2h-2a2 2 0 0 0-2 2v20a2 2 0 0 1-2 2h-88a2 2 0 0 0-2 2v16a2 2 0 0 1-2 2h-12a2 2 0 0 1-2-2V80.242a2 2 0 0 0-3.827-.813l-14.024 31.498a2 2 0 0 1-2.64 1.014l-10.963-4.881a2 2 0 0 1-1.014-2.64l5.168-11.607A2 2 0 0 0 178.872 90zM224 68.4v3.2a2.4 2.4 0 0 0 2.4 2.4h3.2a2.4 2.4 0 0 0 2.4-2.4v-3.2a2.4 2.4 0 0 0-2.4-2.4h-3.2a2.4 2.4 0 0 0-2.4 2.4zm44 3.2v-3.2a2.4 2.4 0 0 0-2.4-2.4h-3.2a2.4 2.4 0 0 0-2.4 2.4v3.2a2.4 2.4 0 0 0 2.4 2.4h3.2a2.4 2.4 0 0 0 2.4-2.4zm-156 0v-3.2a2.4 2.4 0 0 0-2.4-2.4h-3.2a2.4 2.4 0 0 0-2.4 2.4v3.2a2.4 2.4 0 0 0 2.4 2.4h3.2a2.4 2.4 0 0 0 2.4-2.4zm-44-3.2v3.2a2.4 2.4 0 0 0 2.4 2.4h3.2a2.4 2.4 0 0 0 2.4-2.4v-3.2a2.4 2.4 0 0 0-2.4-2.4h-3.2a2.4 2.4 0 0 0-2.4 2.4z"/><path fill="#627C9A" d="M116 85V63a1 1 0 0 0-1-1h-14a1 1 0 0 0-1 1v14a1 1 0 0 0 1 1h10a1 1 0 0 1 1 1v6a1 1 0 0 1-1 1H93a1 1 0 0 1-1-1V55a1 1 0 0 1 1-1h30a1 1 0 0 1 1 1v22a1 1 0 0 0 1 1 1 1 0 0 1 1 1v6a1 1 0 0 1-1 1h-8a1 1 0 0 1-1-1zm45 1h-6a1 1 0 0 1-1-1V45a1 1 0 0 1 1-1h6a1 1 0 0 1 1 1v8a1 1 0 0 0 1 1h22a1 1 0 0 1 1 1v30a1 1 0 0 1-1 1h-6a1 1 0 0 1-1-1V63a1 1 0 0 0-1-1h-14a1 1 0 0 0-1 1v22a1 1 0 0 1-1 1zm111-1V63a1 1 0 0 0-1-1h-14a1 1 0 0 0-1 1v14a1 1 0 0 0 1 1h10a1 1 0 0 1 1 1v6a1 1 0 0 1-1 1h-18a1 1 0 0 1-1-1V55a1 1 0 0 1 1-1h30a1 1 0 0 1 1 1v22a1 1 0 0 0 1 1 1 1 0 0 1 1 1v6a1 1 0 0 1-1 1h-8a1 1 0 0 1-1-1zm123-31h28a1 1 0 0 1 1 1v30a1 1 0 0 1-1 1h-6a1 1 0 0 1-1-1V63a1 1 0 0 0-1-1h-12a1 1 0 0 0-1 1v22a1 1 0 0 1-1 1h-6a1 1 0 0 1-1-1V55a1 1 0 0 1 1-1zm-34 0h28a1 1 0 0 1 1 1v10a1 1 0 0 1-1 1h-6a1 1 0 0 1-1-1v-2a1 1 0 0 0-1-1h-12a1 1 0 0 0-1 1v22a1 1 0 0 1-1 1h-6a1 1 0 0 1-1-1V55a1 1 0 0 1 1-1zm-5 1v18a1 1 0 0 1-1 1h-20a1 1 0 0 0-1 1v2a1 1 0 0 0 1 1h10a1 1 0 0 1 1 1v6a1 1 0 0 1-1 1h-18a1 1 0 0 1-1-1V55a1 1 0 0 1 1-1h28a1 1 0 0 1 1 1zm-9 7h-12a1 1 0 0 0-1 1v2a1 1 0 0 0 1 1h12a1 1 0 0 0 1-1v-2a1 1 0 0 0-1-1zm-43-9v-8a1 1 0 0 1 1-1h6a1 1 0 0 1 1 1v8a1 1 0 0 0 1 1h8a1 1 0 0 1 1 1v6a1 1 0 0 1-1 1h-8a1 1 0 0 0-1 1v22a1 1 0 0 1-1 1h-6a1 1 0 0 1-1-1V63a1 1 0 0 0-1-1h-6a1 1 0 0 0-1 1v22a1 1 0 0 1-1 1h-6a1 1 0 0 1-1-1V63a1 1 0 0 0-1-1h-2a1 1 0 0 1-1-1v-6a1 1 0 0 1 1-1h2a1 1 0 0 0 1-1v-8a1 1 0 0 1 1-1h6a1 1 0 0 1 1 1v8a1 1 0 0 0 1 1h6a1 1 0 0 0 1-1zm-91 1h30a1 1 0 0 1 1 1v30a1 1 0 0 1-1 1h-22a1 1 0 0 0-1 1v18a1 1 0 0 1-1 1h-6a1 1 0 0 1-1-1V55a1 1 0 0 1 1-1zM57 54h30a1 1 0 0 1 1 1v30a1 1 0 0 1-1 1H65a1 1 0 0 0-1 1v18a1 1 0 0 1-1 1h-6a1 1 0 0 1-1-1V55a1 1 0 0 1 1-1zm84 0h8a1 1 0 0 1 1 1v6a1 1 0 0 1-1 1h-8a1 1 0 0 0-1 1v22a1 1 0 0 1-1 1h-6a1 1 0 0 1-1-1V63a1 1 0 0 0-1-1h-2a1 1 0 0 1-1-1v-6a1 1 0 0 1 1-1h2a1 1 0 0 0 1-1v-8a1 1 0 0 1 1-1h6a1 1 0 0 1 1 1v8a1 1 0 0 0 1 1zM61.52 22.407L67 24.847a1 1 0 0 1 .507 1.32L31.715 106.56a1 1 0 0 1-1.32.507l-5.481-2.44a1 1 0 0 1-.507-1.32L60.2 22.914a1 1 0 0 1 1.32-.507zm156 0l5.481 2.44a1 1 0 0 1 .507 1.32l-35.793 80.392a1 1 0 0 1-1.32.507l-5.481-2.44a1 1 0 0 1-.507-1.32L216.2 22.914a1 1 0 0 1 1.32-.507zM220 63v14a1 1 0 0 0 1 1h14a1 1 0 0 0 1-1V63a1 1 0 0 0-1-1h-14a1 1 0 0 0-1 1zM64 63v14a1 1 0 0 0 1 1h14a1 1 0 0 0 1-1V63a1 1 0 0 0-1-1H65a1 1 0 0 0-1 1z"/></g></svg>