<svg xmlns="http://www.w3.org/2000/svg" width="262" height="84" viewBox="0 0 262 84">
  <g fill="none" fill-rule="evenodd" transform="translate(15 15)">
    <path fill="#000" fill-opacity=".05" d="M25.1334982,0.878488919 L229.746923,0.878488919 C230.851493,0.878488919 231.746923,1.77391942 231.746923,2.87848892 C231.746923,3.15381412 231.690076,3.42617407 231.579943,3.67851238 L210.14081,52.8000235 C209.822706,53.5288643 209.103025,54 208.30779,54 L2.94627699,54 C1.84170749,54 0.946276988,53.1045695 0.946276988,52 C0.946276988,51.716101 1.00671836,51.4354551 1.1235819,51.1767245 L23.3108031,2.05521337 C23.6343541,1.33888594 24.3474891,0.878488919 25.1334982,0.878488919 Z"/>
    <path fill="#424267" fill-rule="nonzero" d="M85.4362361,40 L84,40 C83.4477153,40 83,39.5522847 83,39 L83,29 C83,28.4477153 82.5522847,28 82,28 L80,28 C79.4477153,28 79,28.4477153 79,29 L79,39 C79,39.5522847 78.5522847,40 78,40 L72,40 C71.4477153,40 71,39.5522847 71,39 L71,29 C71,28.4477153 70.5522847,28 70,28 L69,28 C68.4477153,28 68,28.4477153 68,29 L68,39 C68,39.5522847 67.5522847,40 67,40 L31,40 C30.4477153,40 30,40.4477153 30,41 L30,49 C30,49.5522847 29.5522847,50 29,50 L23,50 C22.4477153,50 22,49.5522847 22,49 L22,35.1212209 C22,34.5689361 21.5522847,34.1212209 21,34.1212209 C20.6050487,34.1212209 20.2470957,34.3536782 20.0864545,34.7144842 L13.0745361,50.4635109 C12.8499017,50.9680481 12.2587912,51.1949542 11.754254,50.9703197 L6.27298126,48.5298999 C5.76844403,48.3052654 5.541538,47.714155 5.76617244,47.2096178 L24.8827947,4.27298126 C25.1074291,3.76844403 25.6985395,3.541538 26.2030768,3.76617244 L31.6843495,6.2065923 C32.1888867,6.43122675 32.4157928,7.02233718 32.1911583,7.5268744 L27.2640845,18.5932634 C27.0394501,19.0978006 27.2663561,19.688911 27.7708933,19.9135455 C27.8989167,19.9705451 28.037491,20 28.17763,20 L59,20 C59.5522847,20 60,19.5522847 60,19 L60,16 C60,15.4477153 60.4477153,15 61,15 L67,15 C67.5522847,15 68,15.4477153 68,16 L68,19 C68,19.5522847 68.4477153,20 69,20 L70,20 C70.5522847,20 71,19.5522847 71,19 L71,16 C71,15.4477153 71.4477153,15 72,15 L78,15 C78.5522847,15 79,15.4477153 79,16 L79,19 C79,19.5522847 79.4477153,20 80,20 L90,20 C90.5522847,20 91,20.4477153 91,21 L91,26.2575449 C91,26.8098297 91.4477153,27.2575449 92,27.2575449 C92.3949513,27.2575449 92.7529043,27.0250876 92.9135455,26.6642816 L102.882795,4.27298126 C103.107429,3.76844403 103.69854,3.541538 104.203077,3.76617244 L109.68435,6.2065923 C110.188887,6.43122675 110.415793,7.02233718 110.191158,7.5268744 L105.264085,18.5932634 C105.03945,19.0978006 105.266356,19.688911 105.770893,19.9135455 C105.898917,19.9705451 106.037491,20 106.17763,20 L137,20 C137.552285,20 138,19.5522847 138,19 L138,16 C138,15.4477153 138.447715,15 139,15 L145.5,15 C145.776142,15 146,15.2238576 146,15.5 L146,15.5 C146,15.2238576 146.223858,15 146.5,15 L153,15 C153.552285,15 154,15.4477153 154,16 L154,19 C154,19.5522847 154.447715,20 155,20 L209,20 C209.552285,20 210,20.4477153 210,21 L210,39 C210,39.5522847 209.552285,40 209,40 L203,40 C202.447715,40 202,39.5522847 202,39 L202,29 C202,28.4477153 201.552285,28 201,28 L200,28 C199.447715,28 199,28.4477153 199,29 L199,39 C199,39.5522847 198.552285,40 198,40 L192,40 C191.447715,40 191,39.5522847 191,39 L191,31 C191,30.4477153 190.552285,30 190,30 L186,30 C185.447715,30 185,29.5522847 185,29 L185,29 C185,28.4477153 184.552285,28 184,28 L183,28 C182.447715,28 182,28.4477153 182,29 L182,39 C182,39.5522847 181.552285,40 181,40 L175,40 C174.447715,40 174,39.5522847 174,39 L174,35 C174,34.4477153 173.552285,34 173,34 L172,34 C171.447715,34 171,34.4477153 171,35 L171,39 C171,39.5522847 170.552285,40 170,40 L158,40 C157.447715,40 157,39.5522847 157,39 L157,29 C157,28.4477153 156.552285,28 156,28 L155,28 C154.447715,28 154,28.4477153 154,29 L154,39 C154,39.5522847 153.552285,40 153,40 L146.5,40 C146.223858,40 146,39.7761424 146,39.5 L146,39.5 C146,39.7761424 145.776142,40 145.5,40 L109,40 C108.447715,40 108,40.4477153 108,41 L108,49 C108,49.5522847 107.552285,50 107,50 L101,50 C100.447715,50 100,49.5522847 100,49 L100,35.1212209 C100,34.5689361 99.5522847,34.1212209 99,34.1212209 C98.6050487,34.1212209 98.2470957,34.3536782 98.0864545,34.7144842 L91.0745361,50.4635109 C90.8499017,50.9680481 90.2587912,51.1949542 89.754254,50.9703197 L84.2729813,48.5298999 C83.768444,48.3052654 83.541538,47.714155 83.7661724,47.2096178 L86.3497816,41.4067366 C86.574416,40.9021994 86.34751,40.311089 85.8429728,40.0864545 C85.7149494,40.0294549 85.5763751,40 85.4362361,40 Z M108,29.2 L108,30.8 C108,31.4627417 108.537258,32 109.2,32 L110.8,32 C111.462742,32 112,31.4627417 112,30.8 L112,29.2 C112,28.5372583 111.462742,28 110.8,28 L109.2,28 C108.537258,28 108,28.5372583 108,29.2 Z M130,30.8 L130,29.2 C130,28.5372583 129.462742,28 128.8,28 L127.2,28 C126.537258,28 126,28.5372583 126,29.2 L126,30.8 C126,31.4627417 126.537258,32 127.2,32 L128.8,32 C129.462742,32 130,31.4627417 130,30.8 Z M52,30.8 L52,29.2 C52,28.5372583 51.4627417,28 50.8,28 L49.2,28 C48.5372583,28 48,28.5372583 48,29.2 L48,30.8 C48,31.4627417 48.5372583,32 49.2,32 L50.8,32 C51.4627417,32 52,31.4627417 52,30.8 Z M30,29.2 L30,30.8 C30,31.4627417 30.5372583,32 31.2,32 L32.8,32 C33.4627417,32 34,31.4627417 34,30.8 L34,29.2 C34,28.5372583 33.4627417,28 32.8,28 L31.2,28 C30.5372583,28 30,28.5372583 30,29.2 Z"/>
    <path fill="#627C9A" d="M54,37.5 L54,26.5 C54,26.2238576 53.7761424,26 53.5,26 L46.5,26 C46.2238576,26 46,26.2238576 46,26.5 L46,33.5 C46,33.7761424 46.2238576,34 46.5,34 L51.5,34 C51.7761424,34 52,34.2238576 52,34.5 L52,37.5 C52,37.7761424 51.7761424,38 51.5,38 L42.5,38 C42.2238576,38 42,37.7761424 42,37.5 L42,22.5 C42,22.2238576 42.2238576,22 42.5,22 L57.5,22 C57.7761424,22 58,22.2238576 58,22.5 L58,33.5 C58,33.7761424 58.2238576,34 58.5,34 L58.5,34 C58.7761424,34 59,34.2238576 59,34.5 L59,37.5 C59,37.7761424 58.7761424,38 58.5,38 L54.5,38 C54.2238576,38 54,37.7761424 54,37.5 Z M76.5,38 L73.5,38 C73.2238576,38 73,37.7761424 73,37.5 L73,17.5 C73,17.2238576 73.2238576,17 73.5,17 L76.5,17 C76.7761424,17 77,17.2238576 77,17.5 L77,21.5 C77,21.7761424 77.2238576,22 77.5,22 L88.5,22 C88.7761424,22 89,22.2238576 89,22.5 L89,37.5 C89,37.7761424 88.7761424,38 88.5,38 L85.5,38 C85.2238576,38 85,37.7761424 85,37.5 L85,26.5 C85,26.2238576 84.7761424,26 84.5,26 L77.5,26 C77.2238576,26 77,26.2238576 77,26.5 L77,37.5 C77,37.7761424 76.7761424,38 76.5,38 Z M132,37.5 L132,26.5 C132,26.2238576 131.776142,26 131.5,26 L124.5,26 C124.223858,26 124,26.2238576 124,26.5 L124,33.5 C124,33.7761424 124.223858,34 124.5,34 L129.5,34 C129.776142,34 130,34.2238576 130,34.5 L130,37.5 C130,37.7761424 129.776142,38 129.5,38 L120.5,38 C120.223858,38 120,37.7761424 120,37.5 L120,22.5 C120,22.2238576 120.223858,22 120.5,22 L135.5,22 C135.776142,22 136,22.2238576 136,22.5 L136,33.5 C136,33.7761424 136.223858,34 136.5,34 L136.5,34 C136.776142,34 137,34.2238576 137,34.5 L137,37.5 C137,37.7761424 136.776142,38 136.5,38 L132.5,38 C132.223858,38 132,37.7761424 132,37.5 Z M193.5,22 L207.5,22 C207.776142,22 208,22.2238576 208,22.5 L208,37.5 C208,37.7761424 207.776142,38 207.5,38 L204.5,38 C204.223858,38 204,37.7761424 204,37.5 L204,26.5 C204,26.2238576 203.776142,26 203.5,26 L197.5,26 C197.223858,26 197,26.2238576 197,26.5 L197,37.5 C197,37.7761424 196.776142,38 196.5,38 L193.5,38 C193.223858,38 193,37.7761424 193,37.5 L193,22.5 C193,22.2238576 193.223858,22 193.5,22 Z M176.5,22 L190.5,22 C190.776142,22 191,22.2238576 191,22.5 L191,27.5 C191,27.7761424 190.776142,28 190.5,28 L187.5,28 C187.223858,28 187,27.7761424 187,27.5 L187,26.5 C187,26.2238576 186.776142,26 186.5,26 L180.5,26 C180.223858,26 180,26.2238576 180,26.5 L180,37.5 C180,37.7761424 179.776142,38 179.5,38 L176.5,38 C176.223858,38 176,37.7761424 176,37.5 L176,22.5 C176,22.2238576 176.223858,22 176.5,22 Z M174,22.5 L174,31.5 C174,31.7761424 173.776142,32 173.5,32 L163.5,32 C163.223858,32 163,32.2238576 163,32.5 L163,33.5 C163,33.7761424 163.223858,34 163.5,34 L168.5,34 C168.776142,34 169,34.2238576 169,34.5 L169,37.5 C169,37.7761424 168.776142,38 168.5,38 L159.5,38 C159.223858,38 159,37.7761424 159,37.5 L159,22.5 C159,22.2238576 159.223858,22 159.5,22 L173.5,22 C173.776142,22 174,22.2238576 174,22.5 Z M169.5,26 L163.5,26 C163.223858,26 163,26.2238576 163,26.5 L163,27.5 C163,27.7761424 163.223858,28 163.5,28 L169.5,28 C169.776142,28 170,27.7761424 170,27.5 L170,26.5 C170,26.2238576 169.776142,26 169.5,26 Z M148,21.5 L148,17.5 C148,17.2238576 148.223858,17 148.5,17 L151.5,17 C151.776142,17 152,17.2238576 152,17.5 L152,21.5 C152,21.7761424 152.223858,22 152.5,22 L156.5,22 C156.776142,22 157,22.2238576 157,22.5 L157,25.5 C157,25.7761424 156.776142,26 156.5,26 L152.5,26 C152.223858,26 152,26.2238576 152,26.5 L152,37.5 C152,37.7761424 151.776142,38 151.5,38 L148.5,38 C148.223858,38 148,37.7761424 148,37.5 L148,26.5 C148,26.2238576 147.776142,26 147.5,26 L144.5,26 C144.223858,26 144,26.2238576 144,26.5 L144,37.5 C144,37.7761424 143.776142,38 143.5,38 L140.5,38 C140.223858,38 140,37.7761424 140,37.5 L140,26.5 C140,26.2238576 139.776142,26 139.5,26 L138.5,26 C138.223858,26 138,25.7761424 138,25.5 L138,22.5 C138,22.2238576 138.223858,22 138.5,22 L139.5,22 C139.776142,22 140,21.7761424 140,21.5 L140,17.5 C140,17.2238576 140.223858,17 140.5,17 L143.5,17 C143.776142,17 144,17.2238576 144,17.5 L144,21.5 C144,21.7761424 144.223858,22 144.5,22 L147.5,22 C147.776142,22 148,21.7761424 148,21.5 Z M102.5,22 L117.5,22 C117.776142,22 118,22.2238576 118,22.5 L118,37.5 C118,37.7761424 117.776142,38 117.5,38 L106.5,38 C106.223858,38 106,38.2238576 106,38.5 L106,47.5 C106,47.7761424 105.776142,48 105.5,48 L102.5,48 C102.223858,48 102,47.7761424 102,47.5 L102,22.5 C102,22.2238576 102.223858,22 102.5,22 Z M24.5,22 L39.5,22 C39.7761424,22 40,22.2238576 40,22.5 L40,37.5 C40,37.7761424 39.7761424,38 39.5,38 L28.5,38 C28.2238576,38 28,38.2238576 28,38.5 L28,47.5 C28,47.7761424 27.7761424,48 27.5,48 L24.5,48 C24.2238576,48 24,47.7761424 24,47.5 L24,22.5 C24,22.2238576 24.2238576,22 24.5,22 Z M66.5,22 L70.5,22 C70.7761424,22 71,22.2238576 71,22.5 L71,25.5 C71,25.7761424 70.7761424,26 70.5,26 L66.5,26 C66.2238576,26 66,26.2238576 66,26.5 L66,37.5 C66,37.7761424 65.7761424,38 65.5,38 L62.5,38 C62.2238576,38 62,37.7761424 62,37.5 L62,26.5 C62,26.2238576 61.7761424,26 61.5,26 L60.5,26 C60.2238576,26 60,25.7761424 60,25.5 L60,22.5 C60,22.2238576 60.2238576,22 60.5,22 L61.5,22 C61.7761424,22 62,21.7761424 62,21.5 L62,17.5 C62,17.2238576 62.2238576,17 62.5,17 L65.5,17 C65.7761424,17 66,17.2238576 66,17.5 L66,21.5 C66,21.7761424 66.2238576,22 66.5,22 Z M26.7599217,6.20336832 L29.500558,7.42357825 C29.7528267,7.53589547 29.8662797,7.83145069 29.7539624,8.0837193 L11.8575502,48.2797194 C11.7452329,48.531988 11.4496777,48.6454411 11.1974091,48.5331238 L8.45677273,47.3129139 C8.20450412,47.2005967 8.0910511,46.9050415 8.20336832,46.6527729 L26.0997806,6.45677273 C26.2120978,6.20450412 26.5076531,6.0910511 26.7599217,6.20336832 Z M104.759922,6.20336832 L107.500558,7.42357825 C107.752827,7.53589547 107.86628,7.83145069 107.753962,8.0837193 L89.8575502,48.2797194 C89.7452329,48.531988 89.4496777,48.6454411 89.1974091,48.5331238 L86.4567727,47.3129139 C86.2045041,47.2005967 86.0910511,46.9050415 86.2033683,46.6527729 L104.099781,6.45677273 C104.212098,6.20450412 104.507653,6.0910511 104.759922,6.20336832 Z M106,26.5 L106,33.5 C106,33.7761424 106.223858,34 106.5,34 L113.5,34 C113.776142,34 114,33.7761424 114,33.5 L114,26.5 C114,26.2238576 113.776142,26 113.5,26 L106.5,26 C106.223858,26 106,26.2238576 106,26.5 Z M28,26.5 L28,33.5 C28,33.7761424 28.2238576,34 28.5,34 L35.5,34 C35.7761424,34 36,33.7761424 36,33.5 L36,26.5 C36,26.2238576 35.7761424,26 35.5,26 L28.5,26 C28.2238576,26 28,26.2238576 28,26.5 Z"/>
  </g>
</svg>
